<svg version="1.1" xmlns="http://www.w3.org/2000/svg" xmlns:xlink="http://www.w3.org/1999/xlink" width="60.39138" height="121.22918" viewBox="0,0,60.39138,121.22918"><g transform="translate(-209.80431,-106.1972)"><g data-paper-data="{&quot;isPaintingLayer&quot;:true}" fill-rule="nonzero" stroke-linecap="butt" stroke-linejoin="miter" stroke-miterlimit="10" stroke-dasharray="" stroke-dashoffset="0" style="mix-blend-mode: normal"><path d="M261.31231,180c0,20.65836 -9.54185,37.40528 -21.31231,37.40528c-11.77046,0 -21.31231,-16.74691 -21.31231,-37.40528c0,-20.65836 9.54185,-37.40528 21.31231,-37.40528c11.77046,0 21.31231,16.74691 21.31231,37.40528z" fill="none" stroke="#000000" stroke-width="4"/><path d="M236.32025,170.54566c0,3.6601 -2.48157,6.62719 -5.54274,6.62719c-3.06117,0 -5.54274,-2.96709 -5.54274,-6.62719c0,-3.6601 2.48157,-6.62719 5.54274,-6.62719c3.06117,0 5.54274,2.96709 5.54274,6.62719z" fill="#fffd00" stroke="none" stroke-width="0"/><path d="M254.15342,185.48697c0,2.06296 -1.67236,3.73533 -3.73533,3.73533c-2.06296,0 -3.73533,-1.67236 -3.73533,-3.73533c0,-2.06296 1.67236,-3.73533 3.73533,-3.73533c2.06296,0 3.73533,1.67236 3.73533,3.73533z" fill="#fffd00" stroke="none" stroke-width="0"/><path d="M235.35629,187.65587c0,2.46225 -1.61842,4.45829 -3.61483,4.45829c-1.99642,0 -3.61483,-1.99605 -3.61483,-4.45829c0,-2.46225 1.61842,-4.45829 3.61483,-4.45829c1.99642,0 3.61483,1.99605 3.61483,4.45829z" fill="#fffd00" stroke="none" stroke-width="0"/><path d="M249.33364,160.66512c0,2.32915 -1.67236,4.2173 -3.73533,4.2173c-2.06296,0 -3.73533,-1.88815 -3.73533,-4.2173c0,-2.32915 1.67236,-4.2173 3.73533,-4.2173c2.06296,0 3.73533,1.88815 3.73533,4.2173z" fill="#fffd00" stroke="none" stroke-width="0"/><path d="M268.19569,180c0,25.0883 -12.62364,45.42639 -28.19569,45.42639c-15.57205,0 -28.19569,-20.33809 -28.19569,-45.42639c0,-25.0883 12.62364,-45.42639 28.19569,-45.42639c15.57205,0 28.19569,20.33809 28.19569,45.42639z" fill="none" stroke="#000000" stroke-width="4"/><path d="M233.90466,135.66993v-27.47272h13.0134v27.47272z" fill="none" stroke="#000000" stroke-width="4"/></g></g></svg>