<svg version="1.1" xmlns="http://www.w3.org/2000/svg" xmlns:xlink="http://www.w3.org/1999/xlink" width="306" height="179" viewBox="0,0,306,179"><g transform="translate(-87,-90.5)"><g data-paper-data="{&quot;isPaintingLayer&quot;:true}" fill-rule="nonzero" stroke-linejoin="miter" stroke-miterlimit="10" stroke-dasharray="" stroke-dashoffset="0" style="mix-blend-mode: normal"><g><path d="M87,269.5v-179h306v179z" fill="#ffedac" stroke="none" stroke-width="0" stroke-linecap="butt"/><path d="M119.83803,236.5v-113h240.32394v113z" fill="#987615" stroke="none" stroke-width="NaN" stroke-linecap="butt"/><g fill="none" stroke="#000000" stroke-width="4" stroke-linecap="round"><g><path d="M125.51724,232.56897v-108.10345"/><path d="M148.41379,124.46552v108.10345"/><path d="M168.44828,126.43103v108.10345"/></g><g><path d="M191.34483,124.46552v108.10345"/><path d="M214.24138,124.46552v108.10345"/><path d="M234.27586,126.43103v108.10345"/></g><g><path d="M254.31034,126.43103v108.10345"/><path d="M277.2069,126.43103v108.10345"/><path d="M297.24138,128.39655v108.10345"/></g><g><path d="M311.55172,230.60345v-108.10345"/><path d="M334.44828,230.60345v-108.10345"/><path d="M354.48276,124.46552v108.10345"/></g></g><path d="M140.45313,165.5l-2,-33" fill="none" stroke="#ffee00" stroke-width="4.5" stroke-linecap="round"/><path d="M157.45313,158.5l3,-14" fill="none" stroke="#ffee00" stroke-width="4.5" stroke-linecap="round"/><path d="M182.45313,157.5l4,-10" fill="none" stroke="#ffee00" stroke-width="4.5" stroke-linecap="round"/><path d="M203.45313,161.5l-1,-24" fill="none" stroke="#ffee00" stroke-width="4.5" stroke-linecap="round"/><path d="M221.45313,164.5l8,-23" fill="none" stroke="#ffee00" stroke-width="4.5" stroke-linecap="round"/><path d="M241.45313,165.5l7,-22" fill="none" stroke="#ffee00" stroke-width="4.5" stroke-linecap="round"/><path d="M260.45313,162.5l12,-29" fill="none" stroke="#ffee00" stroke-width="4.5" stroke-linecap="round"/><path d="M284.45313,156.5l-1,-18" fill="none" stroke="#ffee00" stroke-width="4.5" stroke-linecap="round"/><path d="M304.45313,166.5l-3,-25" fill="none" stroke="#ffee00" stroke-width="4.5" stroke-linecap="round"/><path d="M326.45313,161.5l-3,-22" fill="none" stroke="#ffee00" stroke-width="4.5" stroke-linecap="round"/><path d="M346.45313,154.5l1,-22" fill="none" stroke="#ffee00" stroke-width="4.5" stroke-linecap="round"/></g></g></g></svg>