<svg version="1.1" xmlns="http://www.w3.org/2000/svg" xmlns:xlink="http://www.w3.org/1999/xlink" width="306" height="179" viewBox="0,0,306,179"><g transform="translate(-87,-90.5)"><g data-paper-data="{&quot;isPaintingLayer&quot;:true}" fill-rule="nonzero" stroke-linejoin="miter" stroke-miterlimit="10" stroke-dasharray="" stroke-dashoffset="0" style="mix-blend-mode: normal"><path d="M87,269.5v-179h306v179z" fill="#ffedac" stroke="none" stroke-width="0" stroke-linecap="butt"/><path d="M119.83803,236.5v-113h240.32394v113z" fill="#987615" stroke="none" stroke-width="NaN" stroke-linecap="butt"/><g fill="none" stroke="#000000" stroke-width="4" stroke-linecap="round"><g><path d="M125.51724,232.56897v-108.10345"/><path d="M148.41379,124.46552v108.10345"/><path d="M168.44828,126.43103v108.10345"/></g><g><path d="M191.34483,124.46552v108.10345"/><path d="M214.24138,124.46552v108.10345"/><path d="M234.27586,126.43103v108.10345"/></g><g><path d="M254.31034,126.43103v108.10345"/><path d="M277.2069,126.43103v108.10345"/><path d="M297.24138,128.39655v108.10345"/></g><g><path d="M311.55172,230.60345v-108.10345"/><path d="M334.44828,230.60345v-108.10345"/><path d="M354.48276,124.46552v108.10345"/></g></g><path d="M138.45313,132.5l2,33l-4,28" fill="none" stroke="#ffee00" stroke-width="4.5" stroke-linecap="round"/><path d="M159.45313,192.5l-2,-34l3,-14" fill="none" stroke="#ffee00" stroke-width="4.5" stroke-linecap="round"/><path d="M180.45313,191.5l2,-34l4,-10" fill="none" stroke="#ffee00" stroke-width="4.5" stroke-linecap="round"/><path d="M206.45313,196.5l-3,-35l-1,-24" fill="none" stroke="#ffee00" stroke-width="4.5" stroke-linecap="round"/><path d="M224.45313,181.5l-3,-17l8,-23" fill="none" stroke="#ffee00" stroke-width="4.5" stroke-linecap="round"/><path d="M250.45313,197.5l-9,-32l7,-22" fill="none" stroke="#ffee00" stroke-width="4.5" stroke-linecap="round"/><path d="M270.45313,199.5l-10,-37l12,-29" fill="none" stroke="#ffee00" stroke-width="4.5" stroke-linecap="round"/><path d="M290.45313,199.5l-6,-43l-1,-18" fill="none" stroke="#ffee00" stroke-width="4.5" stroke-linecap="round"/><path d="M301.45313,141.5l3,25v34" fill="none" stroke="#ffee00" stroke-width="4.5" stroke-linecap="round"/><path d="M323.45313,139.5l3,22l-1,21" fill="none" stroke="#ffee00" stroke-width="4.5" stroke-linecap="round"/><path d="M346.45313,175.5v-21l1,-22" fill="none" stroke="#ffee00" stroke-width="4.5" stroke-linecap="round"/><path d="M143.45313,132.50181l2,33l-4,28" fill="none" stroke="#ffee00" stroke-width="4.5" stroke-linecap="round"/><path d="M163.6201,193.33485l-2,-34l3,-14" fill="none" stroke="#ffee00" stroke-width="4.5" stroke-linecap="round"/><path d="M184.6201,193.16788l2,-34l4,-10" fill="none" stroke="#ffee00" stroke-width="4.5" stroke-linecap="round"/><path d="M199.7907,197.33485l-3,-35l-1,-24" fill="none" stroke="#ffee00" stroke-width="4.5" stroke-linecap="round"/><path d="M219.45676,181.50181l-3,-17l8,-23" fill="none" stroke="#ffee00" stroke-width="4.5" stroke-linecap="round"/><path d="M256.28616,197.50181l-9,-32l7,-22" fill="none" stroke="#ffee00" stroke-width="4.5" stroke-linecap="round"/><path d="M277.11919,200.33485l-10,-37l12,-29" fill="none" stroke="#ffee00" stroke-width="4.5" stroke-linecap="round"/><path d="M295.45313,197.83575l-6,-43l-1,-18" fill="none" stroke="#ffee00" stroke-width="4.5" stroke-linecap="round"/><path d="M305.6201,138.16969l3,25v34" fill="none" stroke="#ffee00" stroke-width="4.5" stroke-linecap="round"/><path d="M316.7907,142.83394l3,22l-1,21" fill="none" stroke="#ffee00" stroke-width="4.5" stroke-linecap="round"/><path d="M339.7907,174.66878v-21l1,-22" fill="none" stroke="#ffee00" stroke-width="4.5" stroke-linecap="round"/></g></g></svg>