<svg version="1.1" xmlns="http://www.w3.org/2000/svg" xmlns:xlink="http://www.w3.org/1999/xlink" width="306" height="179" viewBox="0,0,306,179"><g transform="translate(-87,-90.5)"><g data-paper-data="{&quot;isPaintingLayer&quot;:true}" fill-rule="nonzero" stroke-linejoin="miter" stroke-miterlimit="10" stroke-dasharray="" stroke-dashoffset="0" style="mix-blend-mode: normal"><path d="M87,269.5v-179h306v179z" fill="#ffedac" stroke="none" stroke-width="0" stroke-linecap="butt"/><path d="M119.83803,236.5v-113h240.32394v113z" fill="#987615" stroke="none" stroke-width="NaN" stroke-linecap="butt"/><g fill="none" stroke="#000000" stroke-width="4" stroke-linecap="round"><g><path d="M125.51724,232.56897v-108.10345"/><path d="M148.41379,124.46552v108.10345"/><path d="M168.44828,126.43103v108.10345"/></g><g><path d="M191.34483,124.46552v108.10345"/><path d="M214.24138,124.46552v108.10345"/><path d="M234.27586,126.43103v108.10345"/></g><g><path d="M254.31034,126.43103v108.10345"/><path d="M277.2069,126.43103v108.10345"/><path d="M297.24138,128.39655v108.10345"/></g><g><path d="M311.55172,230.60345v-108.10345"/><path d="M334.44828,230.60345v-108.10345"/><path d="M354.48276,124.46552v108.10345"/></g></g><path d="M138.45313,132.5l2,33l-4,28" fill="none" stroke="#ffee00" stroke-width="4.5" stroke-linecap="round"/><path d="M160.45313,144.5l-3,14l2,34" fill="none" stroke="#ffee00" stroke-width="4.5" stroke-linecap="round"/><path d="M186.45313,147.5l-4,10l-2,34" fill="none" stroke="#ffee00" stroke-width="4.5" stroke-linecap="round"/><path d="M202.45313,137.5l1,24l3,35" fill="none" stroke="#ffee00" stroke-width="4.5" stroke-linecap="round"/><path d="M229.45313,141.5l-8,23l3,17" fill="none" stroke="#ffee00" stroke-width="4.5" stroke-linecap="round"/><path d="M248.45313,143.5l-7,22l9,32" fill="none" stroke="#ffee00" stroke-width="4.5" stroke-linecap="round"/><path d="M272.45313,133.5l-12,29l10,37" fill="none" stroke="#ffee00" stroke-width="4.5" stroke-linecap="round"/><path d="M283.45313,138.5l1,18l6,43" fill="none" stroke="#ffee00" stroke-width="4.5" stroke-linecap="round"/><path d="M301.45313,141.5l3,25l0,34" fill="none" stroke="#ffee00" stroke-width="4.5" stroke-linecap="round"/><path d="M323.45313,139.5l3,22l-1,21" fill="none" stroke="#ffee00" stroke-width="4.5" stroke-linecap="round"/><path d="M347.45313,132.5l-1,22l0,21" fill="none" stroke="#ffee00" stroke-width="4.5" stroke-linecap="round"/></g></g></svg>