<svg version="1.1" xmlns="http://www.w3.org/2000/svg" xmlns:xlink="http://www.w3.org/1999/xlink" width="159.42857" height="171.65197" viewBox="0,0,159.42857,171.65197"><g transform="translate(-160.28571,-100.34803)"><g data-paper-data="{&quot;isPaintingLayer&quot;:true}" fill-rule="nonzero" stroke-linejoin="miter" stroke-miterlimit="10" stroke-dasharray="" stroke-dashoffset="0" style="mix-blend-mode: normal"><g><path d="M206.80791,131.57435l31.23988,-31.22632l30.6976,28.44261l4.4467,98.93909l-28.79058,31.92225l-33.1469,-29.13854z" fill="#7cff54" stroke="none" stroke-width="0" stroke-linecap="butt"/><path d="M190.07792,211l-29.79221,-32.61039l29.79221,-29.38961h99.03896l30.5974,30.19481l-30.5974,31.80519z" fill="#7cff54" stroke="none" stroke-width="0" stroke-linecap="butt"/><path d="M223.5,272v-82h33v82z" fill="#7cff54" stroke="none" stroke-width="0" stroke-linecap="butt"/><path d="M288.5,180c0,22.43312 -21.71419,40.61875 -48.5,40.61875c-26.78581,0 -48.5,-18.18563 -48.5,-40.61875c0,-22.43312 21.71419,-40.61875 48.5,-40.61875c26.78581,0 48.5,18.18563 48.5,40.61875z" fill="#ffff55" stroke="#000000" stroke-width="0" stroke-linecap="butt"/><path d="M251.5,249l39,-31" fill="none" stroke="#7cff54" stroke-width="4" stroke-linecap="round"/><path d="M223.5,230l-25,18" fill="none" stroke="#7cff54" stroke-width="4" stroke-linecap="round"/></g></g></g></svg>