<svg version="1.1" xmlns="http://www.w3.org/2000/svg" xmlns:xlink="http://www.w3.org/1999/xlink" width="195.95426" height="218.98402" viewBox="0,0,195.95426,218.98402"><g transform="translate(-92.0913,-52.25364)"><g data-paper-data="{&quot;isPaintingLayer&quot;:true}" fill-rule="nonzero" stroke="none" stroke-linecap="butt" stroke-linejoin="miter" stroke-miterlimit="10" stroke-dasharray="" stroke-dashoffset="0" style="mix-blend-mode: normal"><g><path d="M225.02531,246.66114l38.29973,-59.2734l20.17818,13.03821l-38.29973,59.2734z" fill="#caa77b" stroke-width="NaN"/><path d="M261.77177,201.77177v-99.0991h19.51952v99.0991z" fill="#caa77b" stroke-width="0"/><path d="M200.96345,75.29271l14.13557,-23.03575l72.94654,44.76265l-14.13557,23.03575z" fill="#caa77b" stroke-width="0"/><path d="M143.15315,77.14715v-24.02402h78.07808v24.02402z" fill="#caa77b" stroke-width="0"/><path d="M117.05932,100.53917l-11.82967,-15.52644l42.99631,-32.75909l11.82967,15.52644z" fill="#caa77b" stroke-width="0"/><path d="M102.61261,173.24324v-88.58859h16.51652v88.58859z" fill="#caa77b" stroke-width="0"/><path d="M92.0913,178.77638l18.88244,-27.56968l63.72174,40.52743l-18.88244,27.56968z" fill="#caa77b" stroke-width="0"/><path d="M138.14885,204.60701l14.15901,-21.23852l99.94598,66.63065l-14.15901,21.23852z" fill="#caa77b" stroke-width="0"/><path d="M162.91808,242.77479l29.15091,-43.72637l28.96985,19.31323l-29.15091,43.72637z" fill="#edff9c" stroke-width="0"/></g></g></g></svg>