<svg version="1.1" xmlns="http://www.w3.org/2000/svg" xmlns:xlink="http://www.w3.org/1999/xlink" width="231.10258" height="197.43533" viewBox="0,0,231.10258,197.43533"><defs><linearGradient x1="217.5" y1="170.33333" x2="240.27778" y2="170.33333" gradientUnits="userSpaceOnUse" id="color-1"><stop offset="0" stop-color="#979797"/><stop offset="1" stop-color="#e3e3e3"/></linearGradient></defs><g transform="translate(-136.31273,-33.56467)"><g data-paper-data="{&quot;isPaintingLayer&quot;:true}" fill-rule="nonzero" stroke-linejoin="miter" stroke-miterlimit="10" stroke-dasharray="" stroke-dashoffset="0" style="mix-blend-mode: normal"><path d="M305.82344,190.36202v-71h20v71z" fill="#c09c43" stroke="#000000" stroke-width="4" stroke-linecap="butt"/><g fill="#b2b2b4" stroke="#000000" stroke-width="4" stroke-linecap="butt"><path d="M148.5,229v-18h45v18z"/><path d="M148.5,209v-18h45v18z"/><path d="M194.5,209v-18h45v18z"/><path d="M195.5,229v-18h45v18z"/></g><g fill="#b2b2b4" stroke="#000000" stroke-width="4" stroke-linecap="butt"><path d="M242.5,229v-18h45v18z"/><path d="M242.5,209v-18h45v18z"/><path d="M288.5,209v-18h45v18z"/><path d="M289.5,229v-18h45v18z"/></g><path d="M157.5,187v-71h20v71z" fill="#c09c43" stroke="#000000" stroke-width="4" stroke-linecap="butt"/><path d="M177.5,132v-16h58v16z" fill="#c09c43" stroke="#000000" stroke-width="4" stroke-linecap="butt"/><path d="M222.5,166v-34h14v34z" fill="#bfa76a" stroke="#000000" stroke-width="4" stroke-linecap="butt"/><g><path d="M217.5,185v-29.33333h22.77778v29.33333z" fill="url(#color-1)" stroke="none" stroke-width="0" stroke-linecap="butt"/><path d="M216.94444,158.77778c0,0 7.7079,-10.82868 11.93731,-10.88588c4.2883,-0.058 13.61825,10.54022 13.61825,10.54022" fill="none" stroke="#000000" stroke-width="5" stroke-linecap="round"/><path d="M216.94444,149.88889v-4.88889h22.77778v4.88889z" fill="#fbff00" stroke="none" stroke-width="0" stroke-linecap="butt"/></g><path d="M160.57416,148.41208l-24.26143,-44.24543l123.88165,-60.16331l24.26143,44.24543z" fill="#f8ff66" stroke="none" stroke-width="NaN" stroke-linecap="butt"/><path d="M230.42741,74.42088l29.61494,-40.85621l107.37296,86.23997l-29.61494,40.85621z" fill="#f8ff66" stroke="none" stroke-width="NaN" stroke-linecap="butt"/></g></g></svg>