<svg version="1.1" xmlns="http://www.w3.org/2000/svg" xmlns:xlink="http://www.w3.org/1999/xlink" width="121.89652" height="153.66553" viewBox="0,0,121.89652,153.66553"><g transform="translate(-178.66973,-131.65823)"><g data-paper-data="{&quot;isPaintingLayer&quot;:true}" fill-rule="nonzero" stroke="#000000" stroke-linecap="butt" stroke-linejoin="miter" stroke-miterlimit="10" stroke-dasharray="" stroke-dashoffset="0" style="mix-blend-mode: normal"><g><path d="M288.50001,180.00001c0,22.43312 -21.71419,40.61875 -48.5,40.61875c-26.78581,0 -48.5,-18.18563 -48.5,-40.61875c0,-22.43312 21.71419,-40.61875 48.5,-40.61875c26.78581,0 48.5,18.18563 48.5,40.61875z" fill="#54f3ff" stroke-width="0"/><path d="M298.06625,180.76403c0,25.73967 -26.16818,46.6058 -58.44826,46.6058c-32.28008,0 -58.44826,-20.86613 -58.44826,-46.6058c0,-25.73967 26.16818,-46.6058 58.44826,-46.6058c32.28008,0 58.44826,20.86613 58.44826,46.6058z" fill="none" stroke-width="5"/><path d="M226.62948,282.82376v-55.77416h22.92089v55.77416z" fill="none" stroke-width="5"/></g></g></g></svg>